<?xml version="1.0" standalone="no"?>
<!DOCTYPE svg PUBLIC "-//W3C//DTD SVG 20010904//EN"
 "http://www.w3.org/TR/2001/REC-SVG-20010904/DTD/svg10.dtd">
<svg version="1.0" xmlns="http://www.w3.org/2000/svg"
 width="512.000000pt" height="512.000000pt" viewBox="0 0 512.000000 512.000000"
 preserveAspectRatio="xMidYMid meet">
<metadata>
Created by potrace 1.14, written by Peter Selinger 2001-2017
</metadata>
<g transform="translate(0.000000,512.000000) scale(0.100000,-0.100000)"
fill="#000000" stroke="none">
<path d="M1979 4987 c0 -7 -2 -60 -4 -119 -3 -105 -13 -265 -20 -323 -2 -16
-9 -76 -16 -132 -7 -57 -16 -103 -21 -103 -12 0 -148 36 -243 65 -44 13 -110
31 -147 40 -37 8 -73 18 -81 21 -13 4 -14 -110 -13 -853 l1 -858 252 0 c138 0
255 -4 260 -8 9 -9 12 -376 3 -378 -3 -1 -181 -2 -397 -3 -215 -1 -394 -4
-397 -7 -5 -5 71 -260 94 -316 9 -21 13 -22 192 -22 310 0 286 2 283 -24 -1
-12 -6 -76 -10 -142 -4 -66 -8 -122 -10 -125 -2 -3 -6 -38 -10 -79 -4 -41 -18
-126 -31 -190 -14 -64 -27 -127 -30 -141 -3 -14 -23 -79 -45 -145 -95 -285
-235 -507 -448 -707 l-90 -85 41 -49 c22 -27 53 -65 70 -84 16 -19 44 -54 61
-77 18 -23 38 -43 45 -43 14 0 55 26 182 114 143 100 278 223 393 361 155 185
302 480 367 735 l16 65 204 1 203 2 -6 -113 c-4 -61 -12 -136 -17 -166 -6 -30
-13 -67 -16 -84 -38 -221 -74 -259 -244 -259 -80 0 -174 6 -264 17 -17 2 -18
-7 -18 -125 0 -69 3 -131 6 -136 3 -6 21 -14 39 -17 60 -13 153 -62 189 -99
40 -41 66 -113 70 -196 l3 -55 65 0 c265 2 446 102 556 310 83 155 139 455
143 762 l1 52 73 58 c95 76 95 76 103 107 10 43 -3 72 -64 137 -49 54 -280
247 -378 316 l-31 22 -104 -99 -104 -99 -178 -1 c-165 0 -178 1 -173 18 7 24
16 125 18 200 l2 62 71 0 c38 1 271 1 516 1 l446 0 52 110 c28 60 51 114 51
118 0 17 -181 181 -287 261 l-108 80 -54 -57 c-29 -32 -76 -83 -105 -113 l-51
-55 -150 0 -150 0 -3 66 -3 67 43 25 c53 31 97 76 103 105 8 43 -71 79 -225
101 -129 19 -312 34 -432 35 l-68 1 0 61 0 61 300 0 300 0 0 -59 0 -58 255 0
c197 0 255 3 256 13 0 6 1 274 1 595 l1 583 56 47 c78 65 80 68 89 94 17 45
-6 89 -91 173 -79 79 -339 285 -359 285 -5 0 -57 -49 -116 -110 -118 -120
-101 -113 -250 -111 l-83 1 41 54 c23 30 71 105 109 167 63 104 73 116 132
151 145 87 156 152 34 203 -64 26 -304 72 -495 95 -52 6 -107 13 -122 15 -17
2 -28 -2 -29 -8z m569 -1110 c2 -106 0 -137 -10 -138 -18 -1 -537 -1 -565 0
-23 1 -23 3 -23 134 0 74 2 136 4 138 3 2 136 4 298 4 l293 0 3 -138z m-55
-426 l57 -1 0 -150 0 -150 -300 0 -300 0 0 149 c0 91 4 151 10 153 8 2 177 2
533 -1z"/>
<path d="M3443 4963 c-1 -37 -13 -290 -18 -368 -9 -144 -16 -235 -20 -265 -3
-19 -7 -57 -10 -85 -10 -106 -36 -307 -50 -395 -3 -14 -7 -43 -11 -65 -47
-310 -149 -712 -252 -1001 l-40 -111 131 -82 130 -81 17 27 c39 65 157 281
174 321 11 23 22 42 26 42 4 0 11 -28 14 -62 6 -53 48 -317 60 -383 51 -266
120 -544 181 -734 l44 -136 -50 -111 c-169 -374 -444 -788 -704 -1060 -88 -92
-88 -73 -4 -166 125 -141 149 -164 157 -153 4 6 36 32 72 59 243 185 536 494
725 764 31 46 61 80 65 75 4 -4 22 -35 40 -68 65 -119 182 -300 265 -409 101
-134 307 -376 320 -376 3 0 23 37 46 83 85 169 169 299 287 441 l66 79 -39 31
c-183 145 -368 328 -510 506 -77 96 -190 256 -201 283 -3 8 5 37 17 64 79 173
222 633 265 848 2 11 13 65 24 120 16 85 30 161 55 315 4 24 9 63 20 153 3 23
7 53 10 67 2 14 7 54 10 90 4 36 8 76 10 90 2 14 6 61 10 105 4 44 8 81 10 83
1 2 49 3 105 4 l102 1 30 66 c32 72 37 83 68 154 l21 48 -53 68 c-70 89 -130
160 -203 239 -125 136 -161 172 -172 172 -8 0 -170 -218 -254 -343 -4 -5 -113
-9 -255 -9 -334 1 -307 -1 -300 19 7 17 44 155 50 189 3 10 12 53 21 94 9 41
18 85 21 98 2 12 7 34 10 50 3 15 13 71 22 125 l16 97 71 39 c79 44 109 73
119 114 10 44 -42 87 -156 130 -123 47 -392 114 -569 142 -36 6 -36 6 -36 -32z
m761 -1466 c10 -4 15 -10 13 -14 -3 -5 -8 -53 -11 -108 -10 -150 -15 -211 -26
-305 -6 -47 -12 -105 -15 -130 -11 -99 -17 -140 -37 -265 -22 -139 -21 -135
-31 -180 -4 -16 -9 -41 -11 -55 -9 -51 -49 -225 -52 -229 -2 -2 -6 -2 -9 1
-12 12 -134 392 -150 468 -2 8 -17 71 -34 140 -16 69 -33 141 -36 160 -3 19
-8 42 -10 50 -2 8 -6 31 -9 50 -3 19 -8 44 -10 56 -2 12 -7 45 -11 75 -4 30
-8 56 -10 59 -2 3 -6 33 -10 67 -3 34 -8 71 -10 82 -6 35 14 79 38 83 41 6
415 1 431 -5z"/>
<path d="M350 4822 c-41 -63 -77 -119 -78 -124 -2 -5 27 -43 65 -86 93 -104
189 -240 238 -342 43 -87 55 -116 95 -230 31 -91 47 -122 74 -147 33 -31 46
-35 101 -36 109 -1 306 219 351 392 58 226 -66 378 -451 553 -147 67 -187 84
-300 128 -18 7 -30 -8 -95 -108z"/>
<path d="M121 3699 c-49 -75 -71 -116 -65 -124 5 -7 32 -40 59 -74 120 -148
193 -299 249 -508 44 -164 51 -178 97 -201 45 -23 94 -20 149 8 110 56 249
312 252 463 4 187 -118 303 -519 489 -154 72 -136 76 -222 -53z"/>
<path d="M1095 3728 c-2 -7 -22 -80 -45 -163 -43 -157 -52 -186 -120 -405 -97
-310 -230 -642 -395 -985 -153 -319 -186 -350 -373 -350 l-112 0 2 -149 3
-149 60 -17 c224 -62 322 -197 327 -446 2 -82 -8 -228 -17 -264 -2 -8 -7 -35
-10 -60 -8 -58 -41 -220 -59 -286 -30 -114 -1 -221 73 -270 61 -40 125 -55
228 -53 307 5 403 166 370 624 -8 106 -11 137 -21 182 -4 15 -9 40 -11 54 -4
23 -39 142 -82 284 -8 28 -16 97 -18 155 -3 87 1 126 24 225 26 110 116 461
196 765 19 69 57 215 85 325 28 110 69 270 92 355 22 85 42 162 44 170 2 8 17
68 34 133 17 65 28 122 26 126 -6 10 -284 211 -292 211 -2 0 -6 -6 -9 -12z"/>
</g>
</svg>
